<?xml version="1.0" encoding="utf-8"?>
<!-- Generator: Adobe Illustrator 24.1.2, SVG Export Plug-In . SVG Version: 6.00 Build 0)  -->
<svg version="1.1" id="Ebene_1" xmlns="http://www.w3.org/2000/svg" xmlns:xlink="http://www.w3.org/1999/xlink" x="0px" y="0px"
	 viewBox="0 0 200 200" style="enable-background:new 0 0 200 200;" xml:space="preserve">
<symbol  id="_x31_" viewBox="-5.37 -4.65 10.73 9.29">
	<polygon points="2.68,4.65 -2.68,4.65 -5.37,0 -2.68,-4.65 2.68,-4.65 5.37,0 	"/>
</symbol>
<g>
	<g>
		
			<use xlink:href="#_x31_"  width="10.73" height="9.29" x="-5.37" y="-4.65" transform="matrix(0.1772 0 0 -0.1772 199.049 199.1764)" style="overflow:visible;"/>
		
			<use xlink:href="#_x31_"  width="10.73" height="9.29" x="-5.37" y="-4.65" transform="matrix(0.1772 0 0 -0.1772 199.049 189.2588)" style="overflow:visible;"/>
		
			<use xlink:href="#_x31_"  width="10.73" height="9.29" x="-5.37" y="-4.65" transform="matrix(0.1772 0 0 -0.1772 199.049 179.3412)" style="overflow:visible;"/>
		
			<use xlink:href="#_x31_"  width="10.73" height="9.29" x="-5.37" y="-4.65" transform="matrix(0.1772 0 0 -0.1772 199.049 169.4235)" style="overflow:visible;"/>
		
			<use xlink:href="#_x31_"  width="10.73" height="9.29" x="-5.37" y="-4.65" transform="matrix(0.1772 0 0 -0.1772 199.049 159.5059)" style="overflow:visible;"/>
		
			<use xlink:href="#_x31_"  width="10.73" height="9.29" x="-5.37" y="-4.65" transform="matrix(0.1772 0 0 -0.1772 199.049 149.5882)" style="overflow:visible;"/>
		
			<use xlink:href="#_x31_"  width="10.73" height="9.29" x="-5.37" y="-4.65" transform="matrix(0.1772 0 0 -0.1772 199.049 139.6706)" style="overflow:visible;"/>
		
			<use xlink:href="#_x31_"  width="10.73" height="9.29" x="-5.37" y="-4.65" transform="matrix(0.1772 0 0 -0.1772 199.049 129.7529)" style="overflow:visible;"/>
		
			<use xlink:href="#_x31_"  width="10.73" height="9.29" x="-5.37" y="-4.65" transform="matrix(0.1772 0 0 -0.1772 199.049 119.8353)" style="overflow:visible;"/>
		
			<use xlink:href="#_x31_"  width="10.73" height="9.29" x="-5.37" y="-4.65" transform="matrix(0.1772 0 0 -0.1772 199.049 109.9176)" style="overflow:visible;"/>
		
			<use xlink:href="#_x31_"  width="10.73" height="9.29" x="-5.37" y="-4.65" transform="matrix(0.1772 0 0 -0.1772 199.0491 100)" style="overflow:visible;"/>
		
			<use xlink:href="#_x31_"  width="10.73" height="9.29" x="-5.37" y="-4.65" transform="matrix(0.1772 0 0 -0.1772 199.0491 90.0824)" style="overflow:visible;"/>
		
			<use xlink:href="#_x31_"  width="10.73" height="9.29" x="-5.37" y="-4.65" transform="matrix(0.1772 0 0 -0.1772 199.0491 80.1647)" style="overflow:visible;"/>
		
			<use xlink:href="#_x31_"  width="10.73" height="9.29" x="-5.37" y="-4.65" transform="matrix(0.1772 0 0 -0.1772 199.0491 70.2471)" style="overflow:visible;"/>
		
			<use xlink:href="#_x31_"  width="10.73" height="9.29" x="-5.37" y="-4.65" transform="matrix(0.1772 0 0 -0.1772 199.0491 60.3294)" style="overflow:visible;"/>
		
			<use xlink:href="#_x31_"  width="10.73" height="9.29" x="-5.37" y="-4.65" transform="matrix(0.1772 0 0 -0.1772 199.0491 50.4118)" style="overflow:visible;"/>
		
			<use xlink:href="#_x31_"  width="10.73" height="9.29" x="-5.37" y="-4.65" transform="matrix(0.1772 0 0 -0.1772 199.0491 40.4941)" style="overflow:visible;"/>
		
			<use xlink:href="#_x31_"  width="10.73" height="9.29" x="-5.37" y="-4.65" transform="matrix(0.1772 0 0 -0.1772 199.0491 30.5765)" style="overflow:visible;"/>
		
			<use xlink:href="#_x31_"  width="10.73" height="9.29" x="-5.37" y="-4.65" transform="matrix(0.1772 0 0 -0.1772 199.0491 20.6588)" style="overflow:visible;"/>
		
			<use xlink:href="#_x31_"  width="10.73" height="9.29" x="-5.37" y="-4.65" transform="matrix(0.1772 0 0 -0.1772 199.0491 10.7412)" style="overflow:visible;"/>
		
			<use xlink:href="#_x31_"  width="10.73" height="9.29" x="-5.37" y="-4.65" transform="matrix(0.1772 0 0 -0.1772 199.0491 0.8236)" style="overflow:visible;"/>
	</g>
	<g>
		
			<use xlink:href="#_x31_"  width="10.73" height="9.29" x="-5.37" y="-4.65" transform="matrix(0.1772 0 0 -0.1772 189.1441 199.1764)" style="overflow:visible;"/>
		
			<use xlink:href="#_x31_"  width="10.73" height="9.29" x="-5.37" y="-4.65" transform="matrix(0.1854 0 0 -0.1854 189.1441 189.2588)" style="overflow:visible;"/>
		
			<use xlink:href="#_x31_"  width="10.73" height="9.29" x="-5.37" y="-4.65" transform="matrix(0.1937 0 0 -0.1937 189.1441 179.3412)" style="overflow:visible;"/>
		
			<use xlink:href="#_x31_"  width="10.73" height="9.29" x="-5.37" y="-4.65" transform="matrix(0.2019 0 0 -0.2019 189.1441 169.4235)" style="overflow:visible;"/>
		
			<use xlink:href="#_x31_"  width="10.73" height="9.29" x="-5.37" y="-4.65" transform="matrix(0.2101 0 0 -0.2101 189.1441 159.5059)" style="overflow:visible;"/>
		
			<use xlink:href="#_x31_"  width="10.73" height="9.29" x="-5.37" y="-4.65" transform="matrix(0.2184 0 0 -0.2184 189.1441 149.5882)" style="overflow:visible;"/>
		
			<use xlink:href="#_x31_"  width="10.73" height="9.29" x="-5.37" y="-4.65" transform="matrix(0.2266 0 0 -0.2266 189.1441 139.6706)" style="overflow:visible;"/>
		
			<use xlink:href="#_x31_"  width="10.73" height="9.29" x="-5.37" y="-4.65" transform="matrix(0.2348 0 0 -0.2348 189.1441 129.7529)" style="overflow:visible;"/>
		
			<use xlink:href="#_x31_"  width="10.73" height="9.29" x="-5.37" y="-4.65" transform="matrix(0.243 0 0 -0.243 189.1441 119.8353)" style="overflow:visible;"/>
		
			<use xlink:href="#_x31_"  width="10.73" height="9.29" x="-5.37" y="-4.65" transform="matrix(0.2513 0 0 -0.2513 189.1441 109.9176)" style="overflow:visible;"/>
		
			<use xlink:href="#_x31_"  width="10.73" height="9.29" x="-5.37" y="-4.65" transform="matrix(0.2595 0 0 -0.2595 189.1441 100)" style="overflow:visible;"/>
		
			<use xlink:href="#_x31_"  width="10.73" height="9.29" x="-5.37" y="-4.65" transform="matrix(0.2513 0 0 -0.2513 189.1441 90.0824)" style="overflow:visible;"/>
		
			<use xlink:href="#_x31_"  width="10.73" height="9.29" x="-5.37" y="-4.65" transform="matrix(0.243 0 0 -0.243 189.1441 80.1647)" style="overflow:visible;"/>
		
			<use xlink:href="#_x31_"  width="10.73" height="9.29" x="-5.37" y="-4.65" transform="matrix(0.2348 0 0 -0.2348 189.1441 70.2471)" style="overflow:visible;"/>
		
			<use xlink:href="#_x31_"  width="10.73" height="9.29" x="-5.37" y="-4.65" transform="matrix(0.2266 0 0 -0.2266 189.1441 60.3294)" style="overflow:visible;"/>
		
			<use xlink:href="#_x31_"  width="10.73" height="9.29" x="-5.37" y="-4.65" transform="matrix(0.2184 0 0 -0.2184 189.1441 50.4118)" style="overflow:visible;"/>
		
			<use xlink:href="#_x31_"  width="10.73" height="9.29" x="-5.37" y="-4.65" transform="matrix(0.2101 0 0 -0.2101 189.1441 40.4941)" style="overflow:visible;"/>
		
			<use xlink:href="#_x31_"  width="10.73" height="9.29" x="-5.37" y="-4.65" transform="matrix(0.2019 0 0 -0.2019 189.1441 30.5765)" style="overflow:visible;"/>
		
			<use xlink:href="#_x31_"  width="10.73" height="9.29" x="-5.37" y="-4.65" transform="matrix(0.1937 0 0 -0.1937 189.1441 20.6588)" style="overflow:visible;"/>
		
			<use xlink:href="#_x31_"  width="10.73" height="9.29" x="-5.37" y="-4.65" transform="matrix(0.1854 0 0 -0.1854 189.1441 10.7412)" style="overflow:visible;"/>
		
			<use xlink:href="#_x31_"  width="10.73" height="9.29" x="-5.37" y="-4.65" transform="matrix(0.1772 0 0 -0.1772 189.1441 0.8236)" style="overflow:visible;"/>
	</g>
	<g>
		
			<use xlink:href="#_x31_"  width="10.73" height="9.29" x="-5.37" y="-4.65" transform="matrix(0.1772 0 0 -0.1772 179.2392 199.1764)" style="overflow:visible;"/>
		
			<use xlink:href="#_x31_"  width="10.73" height="9.29" x="-5.37" y="-4.65" transform="matrix(0.1937 0 0 -0.1937 179.2392 189.2588)" style="overflow:visible;"/>
		
			<use xlink:href="#_x31_"  width="10.73" height="9.29" x="-5.37" y="-4.65" transform="matrix(0.2101 0 0 -0.2101 179.2392 179.3412)" style="overflow:visible;"/>
		
			<use xlink:href="#_x31_"  width="10.73" height="9.29" x="-5.37" y="-4.65" transform="matrix(0.2266 0 0 -0.2266 179.2392 169.4235)" style="overflow:visible;"/>
		
			<use xlink:href="#_x31_"  width="10.73" height="9.29" x="-5.37" y="-4.65" transform="matrix(0.243 0 0 -0.243 179.2392 159.5059)" style="overflow:visible;"/>
		
			<use xlink:href="#_x31_"  width="10.73" height="9.29" x="-5.37" y="-4.65" transform="matrix(0.2595 0 0 -0.2595 179.2392 149.5882)" style="overflow:visible;"/>
		
			<use xlink:href="#_x31_"  width="10.73" height="9.29" x="-5.37" y="-4.65" transform="matrix(0.276 0 0 -0.276 179.2392 139.6706)" style="overflow:visible;"/>
		
			<use xlink:href="#_x31_"  width="10.73" height="9.29" x="-5.37" y="-4.65" transform="matrix(0.2924 0 0 -0.2924 179.2392 129.7529)" style="overflow:visible;"/>
		
			<use xlink:href="#_x31_"  width="10.73" height="9.29" x="-5.37" y="-4.65" transform="matrix(0.3089 0 0 -0.3089 179.2392 119.8353)" style="overflow:visible;"/>
		
			<use xlink:href="#_x31_"  width="10.73" height="9.29" x="-5.37" y="-4.65" transform="matrix(0.3253 0 0 -0.3253 179.2392 109.9176)" style="overflow:visible;"/>
		
			<use xlink:href="#_x31_"  width="10.73" height="9.29" x="-5.37" y="-4.65" transform="matrix(0.3418 0 0 -0.3418 179.2392 100)" style="overflow:visible;"/>
		
			<use xlink:href="#_x31_"  width="10.73" height="9.29" x="-5.37" y="-4.65" transform="matrix(0.3253 0 0 -0.3253 179.2392 90.0824)" style="overflow:visible;"/>
		
			<use xlink:href="#_x31_"  width="10.73" height="9.29" x="-5.37" y="-4.65" transform="matrix(0.3089 0 0 -0.3089 179.2392 80.1647)" style="overflow:visible;"/>
		
			<use xlink:href="#_x31_"  width="10.73" height="9.29" x="-5.37" y="-4.65" transform="matrix(0.2924 0 0 -0.2924 179.2392 70.2471)" style="overflow:visible;"/>
		
			<use xlink:href="#_x31_"  width="10.73" height="9.29" x="-5.37" y="-4.65" transform="matrix(0.276 0 0 -0.276 179.2392 60.3294)" style="overflow:visible;"/>
		
			<use xlink:href="#_x31_"  width="10.73" height="9.29" x="-5.37" y="-4.65" transform="matrix(0.2595 0 0 -0.2595 179.2392 50.4118)" style="overflow:visible;"/>
		
			<use xlink:href="#_x31_"  width="10.73" height="9.29" x="-5.37" y="-4.65" transform="matrix(0.243 0 0 -0.243 179.2392 40.4941)" style="overflow:visible;"/>
		
			<use xlink:href="#_x31_"  width="10.73" height="9.29" x="-5.37" y="-4.65" transform="matrix(0.2266 0 0 -0.2266 179.2392 30.5765)" style="overflow:visible;"/>
		
			<use xlink:href="#_x31_"  width="10.73" height="9.29" x="-5.37" y="-4.65" transform="matrix(0.2101 0 0 -0.2101 179.2392 20.6588)" style="overflow:visible;"/>
		
			<use xlink:href="#_x31_"  width="10.73" height="9.29" x="-5.37" y="-4.65" transform="matrix(0.1937 0 0 -0.1937 179.2392 10.7412)" style="overflow:visible;"/>
		
			<use xlink:href="#_x31_"  width="10.73" height="9.29" x="-5.37" y="-4.65" transform="matrix(0.1772 0 0 -0.1772 179.2392 0.8236)" style="overflow:visible;"/>
	</g>
	<g>
		
			<use xlink:href="#_x31_"  width="10.73" height="9.29" x="-5.37" y="-4.65" transform="matrix(0.1772 0 0 -0.1772 169.3343 199.1764)" style="overflow:visible;"/>
		
			<use xlink:href="#_x31_"  width="10.73" height="9.29" x="-5.37" y="-4.65" transform="matrix(0.2019 0 0 -0.2019 169.3343 189.2588)" style="overflow:visible;"/>
		
			<use xlink:href="#_x31_"  width="10.73" height="9.29" x="-5.37" y="-4.65" transform="matrix(0.2266 0 0 -0.2266 169.3343 179.3412)" style="overflow:visible;"/>
		
			<use xlink:href="#_x31_"  width="10.73" height="9.29" x="-5.37" y="-4.65" transform="matrix(0.2513 0 0 -0.2513 169.3343 169.4235)" style="overflow:visible;"/>
		
			<use xlink:href="#_x31_"  width="10.73" height="9.29" x="-5.37" y="-4.65" transform="matrix(0.276 0 0 -0.276 169.3343 159.5059)" style="overflow:visible;"/>
		
			<use xlink:href="#_x31_"  width="10.73" height="9.29" x="-5.37" y="-4.65" transform="matrix(0.3006 0 0 -0.3006 169.3343 149.5882)" style="overflow:visible;"/>
		
			<use xlink:href="#_x31_"  width="10.73" height="9.29" x="-5.37" y="-4.65" transform="matrix(0.3253 0 0 -0.3253 169.3343 139.6706)" style="overflow:visible;"/>
		
			<use xlink:href="#_x31_"  width="10.73" height="9.29" x="-5.37" y="-4.65" transform="matrix(0.35 0 0 -0.35 169.3343 129.7529)" style="overflow:visible;"/>
		
			<use xlink:href="#_x31_"  width="10.73" height="9.29" x="-5.37" y="-4.65" transform="matrix(0.3747 0 0 -0.3747 169.3343 119.8353)" style="overflow:visible;"/>
		
			<use xlink:href="#_x31_"  width="10.73" height="9.29" x="-5.37" y="-4.65" transform="matrix(0.3994 0 0 -0.3994 169.3343 109.9176)" style="overflow:visible;"/>
		
			<use xlink:href="#_x31_"  width="10.73" height="9.29" x="-5.37" y="-4.65" transform="matrix(0.4241 0 0 -0.4241 169.3343 100)" style="overflow:visible;"/>
		
			<use xlink:href="#_x31_"  width="10.73" height="9.29" x="-5.37" y="-4.65" transform="matrix(0.3994 0 0 -0.3994 169.3343 90.0824)" style="overflow:visible;"/>
		
			<use xlink:href="#_x31_"  width="10.73" height="9.29" x="-5.37" y="-4.65" transform="matrix(0.3747 0 0 -0.3747 169.3343 80.1647)" style="overflow:visible;"/>
		
			<use xlink:href="#_x31_"  width="10.73" height="9.29" x="-5.37" y="-4.65" transform="matrix(0.35 0 0 -0.35 169.3343 70.2471)" style="overflow:visible;"/>
		
			<use xlink:href="#_x31_"  width="10.73" height="9.29" x="-5.37" y="-4.65" transform="matrix(0.3253 0 0 -0.3253 169.3343 60.3294)" style="overflow:visible;"/>
		
			<use xlink:href="#_x31_"  width="10.73" height="9.29" x="-5.37" y="-4.65" transform="matrix(0.3006 0 0 -0.3006 169.3343 50.4118)" style="overflow:visible;"/>
		
			<use xlink:href="#_x31_"  width="10.73" height="9.29" x="-5.37" y="-4.65" transform="matrix(0.276 0 0 -0.276 169.3343 40.4941)" style="overflow:visible;"/>
		
			<use xlink:href="#_x31_"  width="10.73" height="9.29" x="-5.37" y="-4.65" transform="matrix(0.2513 0 0 -0.2513 169.3343 30.5765)" style="overflow:visible;"/>
		
			<use xlink:href="#_x31_"  width="10.73" height="9.29" x="-5.37" y="-4.65" transform="matrix(0.2266 0 0 -0.2266 169.3343 20.6588)" style="overflow:visible;"/>
		
			<use xlink:href="#_x31_"  width="10.73" height="9.29" x="-5.37" y="-4.65" transform="matrix(0.2019 0 0 -0.2019 169.3343 10.7412)" style="overflow:visible;"/>
		
			<use xlink:href="#_x31_"  width="10.73" height="9.29" x="-5.37" y="-4.65" transform="matrix(0.1772 0 0 -0.1772 169.3343 0.8236)" style="overflow:visible;"/>
	</g>
	<g>
		
			<use xlink:href="#_x31_"  width="10.73" height="9.29" x="-5.37" y="-4.65" transform="matrix(0.1772 0 0 -0.1772 159.4294 199.1764)" style="overflow:visible;"/>
		
			<use xlink:href="#_x31_"  width="10.73" height="9.29" x="-5.37" y="-4.65" transform="matrix(0.2101 0 0 -0.2101 159.4294 189.2588)" style="overflow:visible;"/>
		
			<use xlink:href="#_x31_"  width="10.73" height="9.29" x="-5.37" y="-4.65" transform="matrix(0.243 0 0 -0.243 159.4294 179.3412)" style="overflow:visible;"/>
		
			<use xlink:href="#_x31_"  width="10.73" height="9.29" x="-5.37" y="-4.65" transform="matrix(0.276 0 0 -0.276 159.4294 169.4235)" style="overflow:visible;"/>
		
			<use xlink:href="#_x31_"  width="10.73" height="9.29" x="-5.37" y="-4.65" transform="matrix(0.3089 0 0 -0.3089 159.4294 159.5059)" style="overflow:visible;"/>
		
			<use xlink:href="#_x31_"  width="10.73" height="9.29" x="-5.37" y="-4.65" transform="matrix(0.3418 0 0 -0.3418 159.4294 149.5882)" style="overflow:visible;"/>
		
			<use xlink:href="#_x31_"  width="10.73" height="9.29" x="-5.37" y="-4.65" transform="matrix(0.3747 0 0 -0.3747 159.4294 139.6706)" style="overflow:visible;"/>
		
			<use xlink:href="#_x31_"  width="10.73" height="9.29" x="-5.37" y="-4.65" transform="matrix(0.4076 0 0 -0.4076 159.4294 129.7529)" style="overflow:visible;"/>
		
			<use xlink:href="#_x31_"  width="10.73" height="9.29" x="-5.37" y="-4.65" transform="matrix(0.4405 0 0 -0.4405 159.4294 119.8353)" style="overflow:visible;"/>
		
			<use xlink:href="#_x31_"  width="10.73" height="9.29" x="-5.37" y="-4.65" transform="matrix(0.4734 0 0 -0.4734 159.4294 109.9176)" style="overflow:visible;"/>
		
			<use xlink:href="#_x31_"  width="10.73" height="9.29" x="-5.37" y="-4.65" transform="matrix(0.5063 0 0 -0.5063 159.4294 100)" style="overflow:visible;"/>
		
			<use xlink:href="#_x31_"  width="10.73" height="9.29" x="-5.37" y="-4.65" transform="matrix(0.4734 0 0 -0.4734 159.4294 90.0824)" style="overflow:visible;"/>
		
			<use xlink:href="#_x31_"  width="10.73" height="9.29" x="-5.37" y="-4.65" transform="matrix(0.4405 0 0 -0.4405 159.4294 80.1647)" style="overflow:visible;"/>
		
			<use xlink:href="#_x31_"  width="10.73" height="9.29" x="-5.37" y="-4.65" transform="matrix(0.4076 0 0 -0.4076 159.4294 70.2471)" style="overflow:visible;"/>
		
			<use xlink:href="#_x31_"  width="10.73" height="9.29" x="-5.37" y="-4.65" transform="matrix(0.3747 0 0 -0.3747 159.4294 60.3294)" style="overflow:visible;"/>
		
			<use xlink:href="#_x31_"  width="10.73" height="9.29" x="-5.37" y="-4.65" transform="matrix(0.3418 0 0 -0.3418 159.4294 50.4118)" style="overflow:visible;"/>
		
			<use xlink:href="#_x31_"  width="10.73" height="9.29" x="-5.37" y="-4.65" transform="matrix(0.3089 0 0 -0.3089 159.4294 40.4941)" style="overflow:visible;"/>
		
			<use xlink:href="#_x31_"  width="10.73" height="9.29" x="-5.37" y="-4.65" transform="matrix(0.276 0 0 -0.276 159.4294 30.5765)" style="overflow:visible;"/>
		
			<use xlink:href="#_x31_"  width="10.73" height="9.29" x="-5.37" y="-4.65" transform="matrix(0.243 0 0 -0.243 159.4294 20.6588)" style="overflow:visible;"/>
		
			<use xlink:href="#_x31_"  width="10.73" height="9.29" x="-5.37" y="-4.65" transform="matrix(0.2101 0 0 -0.2101 159.4294 10.7412)" style="overflow:visible;"/>
		
			<use xlink:href="#_x31_"  width="10.73" height="9.29" x="-5.37" y="-4.65" transform="matrix(0.1772 0 0 -0.1772 159.4294 0.8236)" style="overflow:visible;"/>
	</g>
	<g>
		
			<use xlink:href="#_x31_"  width="10.73" height="9.29" x="-5.37" y="-4.65" transform="matrix(0.1772 0 0 -0.1772 149.5245 199.1764)" style="overflow:visible;"/>
		
			<use xlink:href="#_x31_"  width="10.73" height="9.29" x="-5.37" y="-4.65" transform="matrix(0.2184 0 0 -0.2184 149.5245 189.2588)" style="overflow:visible;"/>
		
			<use xlink:href="#_x31_"  width="10.73" height="9.29" x="-5.37" y="-4.65" transform="matrix(0.2595 0 0 -0.2595 149.5245 179.3412)" style="overflow:visible;"/>
		
			<use xlink:href="#_x31_"  width="10.73" height="9.29" x="-5.37" y="-4.65" transform="matrix(0.3006 0 0 -0.3006 149.5245 169.4235)" style="overflow:visible;"/>
		
			<use xlink:href="#_x31_"  width="10.73" height="9.29" x="-5.37" y="-4.65" transform="matrix(0.3418 0 0 -0.3418 149.5245 159.5059)" style="overflow:visible;"/>
		
			<use xlink:href="#_x31_"  width="10.73" height="9.29" x="-5.37" y="-4.65" transform="matrix(0.3829 0 0 -0.3829 149.5245 149.5882)" style="overflow:visible;"/>
		
			<use xlink:href="#_x31_"  width="10.73" height="9.29" x="-5.37" y="-4.65" transform="matrix(0.4241 0 0 -0.4241 149.5245 139.6706)" style="overflow:visible;"/>
		
			<use xlink:href="#_x31_"  width="10.73" height="9.29" x="-5.37" y="-4.65" transform="matrix(0.4652 0 0 -0.4652 149.5245 129.7529)" style="overflow:visible;"/>
		
			<use xlink:href="#_x31_"  width="10.73" height="9.29" x="-5.37" y="-4.65" transform="matrix(0.5063 0 0 -0.5063 149.5245 119.8353)" style="overflow:visible;"/>
		
			<use xlink:href="#_x31_"  width="10.73" height="9.29" x="-5.37" y="-4.65" transform="matrix(0.5475 0 0 -0.5475 149.5245 109.9176)" style="overflow:visible;"/>
		
			<use xlink:href="#_x31_"  width="10.73" height="9.29" x="-5.37" y="-4.65" transform="matrix(0.5886 0 0 -0.5886 149.5245 100)" style="overflow:visible;"/>
		
			<use xlink:href="#_x31_"  width="10.73" height="9.29" x="-5.37" y="-4.65" transform="matrix(0.5475 0 0 -0.5475 149.5245 90.0824)" style="overflow:visible;"/>
		
			<use xlink:href="#_x31_"  width="10.73" height="9.29" x="-5.37" y="-4.65" transform="matrix(0.5063 0 0 -0.5063 149.5245 80.1647)" style="overflow:visible;"/>
		
			<use xlink:href="#_x31_"  width="10.73" height="9.29" x="-5.37" y="-4.65" transform="matrix(0.4652 0 0 -0.4652 149.5245 70.2471)" style="overflow:visible;"/>
		
			<use xlink:href="#_x31_"  width="10.73" height="9.29" x="-5.37" y="-4.65" transform="matrix(0.4241 0 0 -0.4241 149.5245 60.3294)" style="overflow:visible;"/>
		
			<use xlink:href="#_x31_"  width="10.73" height="9.29" x="-5.37" y="-4.65" transform="matrix(0.3829 0 0 -0.3829 149.5245 50.4118)" style="overflow:visible;"/>
		
			<use xlink:href="#_x31_"  width="10.73" height="9.29" x="-5.37" y="-4.65" transform="matrix(0.3418 0 0 -0.3418 149.5245 40.4941)" style="overflow:visible;"/>
		
			<use xlink:href="#_x31_"  width="10.73" height="9.29" x="-5.37" y="-4.65" transform="matrix(0.3006 0 0 -0.3006 149.5245 30.5765)" style="overflow:visible;"/>
		
			<use xlink:href="#_x31_"  width="10.73" height="9.29" x="-5.37" y="-4.65" transform="matrix(0.2595 0 0 -0.2595 149.5245 20.6588)" style="overflow:visible;"/>
		
			<use xlink:href="#_x31_"  width="10.73" height="9.29" x="-5.37" y="-4.65" transform="matrix(0.2184 0 0 -0.2184 149.5245 10.7412)" style="overflow:visible;"/>
		
			<use xlink:href="#_x31_"  width="10.73" height="9.29" x="-5.37" y="-4.65" transform="matrix(0.1772 0 0 -0.1772 149.5245 0.8236)" style="overflow:visible;"/>
	</g>
	<g>
		
			<use xlink:href="#_x31_"  width="10.73" height="9.29" x="-5.37" y="-4.65" transform="matrix(0.1772 0 0 -0.1772 139.6196 199.1764)" style="overflow:visible;"/>
		
			<use xlink:href="#_x31_"  width="10.73" height="9.29" x="-5.37" y="-4.65" transform="matrix(0.2266 0 0 -0.2266 139.6196 189.2588)" style="overflow:visible;"/>
		
			<use xlink:href="#_x31_"  width="10.73" height="9.29" x="-5.37" y="-4.65" transform="matrix(0.276 0 0 -0.276 139.6196 179.3412)" style="overflow:visible;"/>
		
			<use xlink:href="#_x31_"  width="10.73" height="9.29" x="-5.37" y="-4.65" transform="matrix(0.3253 0 0 -0.3253 139.6196 169.4235)" style="overflow:visible;"/>
		
			<use xlink:href="#_x31_"  width="10.73" height="9.29" x="-5.37" y="-4.65" transform="matrix(0.3747 0 0 -0.3747 139.6196 159.5059)" style="overflow:visible;"/>
		
			<use xlink:href="#_x31_"  width="10.73" height="9.29" x="-5.37" y="-4.65" transform="matrix(0.4241 0 0 -0.4241 139.6196 149.5882)" style="overflow:visible;"/>
		
			<use xlink:href="#_x31_"  width="10.73" height="9.29" x="-5.37" y="-4.65" transform="matrix(0.4734 0 0 -0.4734 139.6196 139.6706)" style="overflow:visible;"/>
		
			<use xlink:href="#_x31_"  width="10.73" height="9.29" x="-5.37" y="-4.65" transform="matrix(0.5228 0 0 -0.5228 139.6196 129.7529)" style="overflow:visible;"/>
		
			<use xlink:href="#_x31_"  width="10.73" height="9.29" x="-5.37" y="-4.65" transform="matrix(0.5722 0 0 -0.5722 139.6196 119.8353)" style="overflow:visible;"/>
		
			<use xlink:href="#_x31_"  width="10.73" height="9.29" x="-5.37" y="-4.65" transform="matrix(0.6215 0 0 -0.6215 139.6196 109.9176)" style="overflow:visible;"/>
		
			<use xlink:href="#_x31_"  width="10.73" height="9.29" x="-5.37" y="-4.65" transform="matrix(0.6709 0 0 -0.6709 139.6196 100)" style="overflow:visible;"/>
		
			<use xlink:href="#_x31_"  width="10.73" height="9.29" x="-5.37" y="-4.65" transform="matrix(0.6215 0 0 -0.6215 139.6196 90.0824)" style="overflow:visible;"/>
		
			<use xlink:href="#_x31_"  width="10.73" height="9.29" x="-5.37" y="-4.65" transform="matrix(0.5722 0 0 -0.5722 139.6196 80.1647)" style="overflow:visible;"/>
		
			<use xlink:href="#_x31_"  width="10.73" height="9.29" x="-5.37" y="-4.65" transform="matrix(0.5228 0 0 -0.5228 139.6196 70.2471)" style="overflow:visible;"/>
		
			<use xlink:href="#_x31_"  width="10.73" height="9.29" x="-5.37" y="-4.65" transform="matrix(0.4734 0 0 -0.4734 139.6196 60.3294)" style="overflow:visible;"/>
		
			<use xlink:href="#_x31_"  width="10.73" height="9.29" x="-5.37" y="-4.65" transform="matrix(0.4241 0 0 -0.4241 139.6196 50.4118)" style="overflow:visible;"/>
		
			<use xlink:href="#_x31_"  width="10.73" height="9.29" x="-5.37" y="-4.65" transform="matrix(0.3747 0 0 -0.3747 139.6196 40.4941)" style="overflow:visible;"/>
		
			<use xlink:href="#_x31_"  width="10.73" height="9.29" x="-5.37" y="-4.65" transform="matrix(0.3253 0 0 -0.3253 139.6196 30.5765)" style="overflow:visible;"/>
		
			<use xlink:href="#_x31_"  width="10.73" height="9.29" x="-5.37" y="-4.65" transform="matrix(0.276 0 0 -0.276 139.6196 20.6588)" style="overflow:visible;"/>
		
			<use xlink:href="#_x31_"  width="10.73" height="9.29" x="-5.37" y="-4.65" transform="matrix(0.2266 0 0 -0.2266 139.6196 10.7412)" style="overflow:visible;"/>
		
			<use xlink:href="#_x31_"  width="10.73" height="9.29" x="-5.37" y="-4.65" transform="matrix(0.1772 0 0 -0.1772 139.6196 0.8236)" style="overflow:visible;"/>
	</g>
	<g>
		
			<use xlink:href="#_x31_"  width="10.73" height="9.29" x="-5.37" y="-4.65" transform="matrix(0.1772 0 0 -0.1772 129.7147 199.1764)" style="overflow:visible;"/>
		
			<use xlink:href="#_x31_"  width="10.73" height="9.29" x="-5.37" y="-4.65" transform="matrix(0.2348 0 0 -0.2348 129.7147 189.2588)" style="overflow:visible;"/>
		
			<use xlink:href="#_x31_"  width="10.73" height="9.29" x="-5.37" y="-4.65" transform="matrix(0.2924 0 0 -0.2924 129.7147 179.3412)" style="overflow:visible;"/>
		
			<use xlink:href="#_x31_"  width="10.73" height="9.29" x="-5.37" y="-4.65" transform="matrix(0.35 0 0 -0.35 129.7147 169.4235)" style="overflow:visible;"/>
		
			<use xlink:href="#_x31_"  width="10.73" height="9.29" x="-5.37" y="-4.65" transform="matrix(0.4076 0 0 -0.4076 129.7147 159.5059)" style="overflow:visible;"/>
		
			<use xlink:href="#_x31_"  width="10.73" height="9.29" x="-5.37" y="-4.65" transform="matrix(0.4652 0 0 -0.4652 129.7147 149.5882)" style="overflow:visible;"/>
		
			<use xlink:href="#_x31_"  width="10.73" height="9.29" x="-5.37" y="-4.65" transform="matrix(0.5228 0 0 -0.5228 129.7147 139.6706)" style="overflow:visible;"/>
		
			<use xlink:href="#_x31_"  width="10.73" height="9.29" x="-5.37" y="-4.65" transform="matrix(0.5804 0 0 -0.5804 129.7147 129.7529)" style="overflow:visible;"/>
		
			<use xlink:href="#_x31_"  width="10.73" height="9.29" x="-5.37" y="-4.65" transform="matrix(0.638 0 0 -0.638 129.7147 119.8353)" style="overflow:visible;"/>
		
			<use xlink:href="#_x31_"  width="10.73" height="9.29" x="-5.37" y="-4.65" transform="matrix(0.6956 0 0 -0.6956 129.7147 109.9176)" style="overflow:visible;"/>
		
			<use xlink:href="#_x31_"  width="10.73" height="9.29" x="-5.37" y="-4.65" transform="matrix(0.7532 0 0 -0.7532 129.7147 100)" style="overflow:visible;"/>
		
			<use xlink:href="#_x31_"  width="10.73" height="9.29" x="-5.37" y="-4.65" transform="matrix(0.6956 0 0 -0.6956 129.7147 90.0824)" style="overflow:visible;"/>
		
			<use xlink:href="#_x31_"  width="10.73" height="9.29" x="-5.37" y="-4.65" transform="matrix(0.638 0 0 -0.638 129.7147 80.1647)" style="overflow:visible;"/>
		
			<use xlink:href="#_x31_"  width="10.73" height="9.29" x="-5.37" y="-4.65" transform="matrix(0.5804 0 0 -0.5804 129.7147 70.2471)" style="overflow:visible;"/>
		
			<use xlink:href="#_x31_"  width="10.73" height="9.29" x="-5.37" y="-4.65" transform="matrix(0.5228 0 0 -0.5228 129.7147 60.3294)" style="overflow:visible;"/>
		
			<use xlink:href="#_x31_"  width="10.73" height="9.29" x="-5.37" y="-4.65" transform="matrix(0.4652 0 0 -0.4652 129.7147 50.4118)" style="overflow:visible;"/>
		
			<use xlink:href="#_x31_"  width="10.73" height="9.29" x="-5.37" y="-4.65" transform="matrix(0.4076 0 0 -0.4076 129.7147 40.4941)" style="overflow:visible;"/>
		
			<use xlink:href="#_x31_"  width="10.73" height="9.29" x="-5.37" y="-4.65" transform="matrix(0.35 0 0 -0.35 129.7147 30.5765)" style="overflow:visible;"/>
		
			<use xlink:href="#_x31_"  width="10.73" height="9.29" x="-5.37" y="-4.65" transform="matrix(0.2924 0 0 -0.2924 129.7147 20.6588)" style="overflow:visible;"/>
		
			<use xlink:href="#_x31_"  width="10.73" height="9.29" x="-5.37" y="-4.65" transform="matrix(0.2348 0 0 -0.2348 129.7147 10.7412)" style="overflow:visible;"/>
		
			<use xlink:href="#_x31_"  width="10.73" height="9.29" x="-5.37" y="-4.65" transform="matrix(0.1772 0 0 -0.1772 129.7147 0.8236)" style="overflow:visible;"/>
	</g>
	<g>
		
			<use xlink:href="#_x31_"  width="10.73" height="9.29" x="-5.37" y="-4.65" transform="matrix(0.1772 0 0 -0.1772 119.8098 199.1764)" style="overflow:visible;"/>
		
			<use xlink:href="#_x31_"  width="10.73" height="9.29" x="-5.37" y="-4.65" transform="matrix(0.243 0 0 -0.243 119.8098 189.2588)" style="overflow:visible;"/>
		
			<use xlink:href="#_x31_"  width="10.73" height="9.29" x="-5.37" y="-4.65" transform="matrix(0.3089 0 0 -0.3089 119.8098 179.3412)" style="overflow:visible;"/>
		
			<use xlink:href="#_x31_"  width="10.73" height="9.29" x="-5.37" y="-4.65" transform="matrix(0.3747 0 0 -0.3747 119.8098 169.4235)" style="overflow:visible;"/>
		
			<use xlink:href="#_x31_"  width="10.73" height="9.29" x="-5.37" y="-4.65" transform="matrix(0.4405 0 0 -0.4405 119.8098 159.5059)" style="overflow:visible;"/>
		
			<use xlink:href="#_x31_"  width="10.73" height="9.29" x="-5.37" y="-4.65" transform="matrix(0.5063 0 0 -0.5063 119.8098 149.5882)" style="overflow:visible;"/>
		
			<use xlink:href="#_x31_"  width="10.73" height="9.29" x="-5.37" y="-4.65" transform="matrix(0.5722 0 0 -0.5722 119.8098 139.6706)" style="overflow:visible;"/>
		
			<use xlink:href="#_x31_"  width="10.73" height="9.29" x="-5.37" y="-4.65" transform="matrix(0.638 0 0 -0.638 119.8098 129.7529)" style="overflow:visible;"/>
		
			<use xlink:href="#_x31_"  width="10.73" height="9.29" x="-5.37" y="-4.65" transform="matrix(0.7038 0 0 -0.7038 119.8098 119.8353)" style="overflow:visible;"/>
		
			<use xlink:href="#_x31_"  width="10.73" height="9.29" x="-5.37" y="-4.65" transform="matrix(0.7696 0 0 -0.7696 119.8098 109.9176)" style="overflow:visible;"/>
		
			<use xlink:href="#_x31_"  width="10.73" height="9.29" x="-5.37" y="-4.65" transform="matrix(0.8354 0 0 -0.8354 119.8098 100)" style="overflow:visible;"/>
		
			<use xlink:href="#_x31_"  width="10.73" height="9.29" x="-5.37" y="-4.65" transform="matrix(0.7696 0 0 -0.7696 119.8098 90.0824)" style="overflow:visible;"/>
		
			<use xlink:href="#_x31_"  width="10.73" height="9.29" x="-5.37" y="-4.65" transform="matrix(0.7038 0 0 -0.7038 119.8098 80.1647)" style="overflow:visible;"/>
		
			<use xlink:href="#_x31_"  width="10.73" height="9.29" x="-5.37" y="-4.65" transform="matrix(0.638 0 0 -0.638 119.8098 70.2471)" style="overflow:visible;"/>
		
			<use xlink:href="#_x31_"  width="10.73" height="9.29" x="-5.37" y="-4.65" transform="matrix(0.5722 0 0 -0.5722 119.8098 60.3294)" style="overflow:visible;"/>
		
			<use xlink:href="#_x31_"  width="10.73" height="9.29" x="-5.37" y="-4.65" transform="matrix(0.5063 0 0 -0.5063 119.8098 50.4118)" style="overflow:visible;"/>
		
			<use xlink:href="#_x31_"  width="10.73" height="9.29" x="-5.37" y="-4.65" transform="matrix(0.4405 0 0 -0.4405 119.8098 40.4941)" style="overflow:visible;"/>
		
			<use xlink:href="#_x31_"  width="10.73" height="9.29" x="-5.37" y="-4.65" transform="matrix(0.3747 0 0 -0.3747 119.8098 30.5765)" style="overflow:visible;"/>
		
			<use xlink:href="#_x31_"  width="10.73" height="9.29" x="-5.37" y="-4.65" transform="matrix(0.3089 0 0 -0.3089 119.8098 20.6588)" style="overflow:visible;"/>
		
			<use xlink:href="#_x31_"  width="10.73" height="9.29" x="-5.37" y="-4.65" transform="matrix(0.243 0 0 -0.243 119.8098 10.7412)" style="overflow:visible;"/>
		
			<use xlink:href="#_x31_"  width="10.73" height="9.29" x="-5.37" y="-4.65" transform="matrix(0.1772 0 0 -0.1772 119.8098 0.8236)" style="overflow:visible;"/>
	</g>
	<g>
		
			<use xlink:href="#_x31_"  width="10.73" height="9.29" x="-5.37" y="-4.65" transform="matrix(0.1772 0 0 -0.1772 109.9049 199.1764)" style="overflow:visible;"/>
		
			<use xlink:href="#_x31_"  width="10.73" height="9.29" x="-5.37" y="-4.65" transform="matrix(0.2513 0 0 -0.2513 109.9049 189.2588)" style="overflow:visible;"/>
		
			<use xlink:href="#_x31_"  width="10.73" height="9.29" x="-5.37" y="-4.65" transform="matrix(0.3253 0 0 -0.3253 109.9049 179.3412)" style="overflow:visible;"/>
		
			<use xlink:href="#_x31_"  width="10.73" height="9.29" x="-5.37" y="-4.65" transform="matrix(0.3994 0 0 -0.3994 109.9049 169.4235)" style="overflow:visible;"/>
		
			<use xlink:href="#_x31_"  width="10.73" height="9.29" x="-5.37" y="-4.65" transform="matrix(0.4734 0 0 -0.4734 109.9049 159.5059)" style="overflow:visible;"/>
		
			<use xlink:href="#_x31_"  width="10.73" height="9.29" x="-5.37" y="-4.65" transform="matrix(0.5475 0 0 -0.5475 109.9049 149.5882)" style="overflow:visible;"/>
		
			<use xlink:href="#_x31_"  width="10.73" height="9.29" x="-5.37" y="-4.65" transform="matrix(0.6215 0 0 -0.6215 109.9049 139.6706)" style="overflow:visible;"/>
		
			<use xlink:href="#_x31_"  width="10.73" height="9.29" x="-5.37" y="-4.65" transform="matrix(0.6956 0 0 -0.6956 109.9049 129.7529)" style="overflow:visible;"/>
		
			<use xlink:href="#_x31_"  width="10.73" height="9.29" x="-5.37" y="-4.65" transform="matrix(0.7696 0 0 -0.7696 109.9049 119.8353)" style="overflow:visible;"/>
		
			<use xlink:href="#_x31_"  width="10.73" height="9.29" x="-5.37" y="-4.65" transform="matrix(0.8437 0 0 -0.8437 109.9049 109.9176)" style="overflow:visible;"/>
		
			<use xlink:href="#_x31_"  width="10.73" height="9.29" x="-5.37" y="-4.65" transform="matrix(0.9177 0 0 -0.9177 109.9049 100)" style="overflow:visible;"/>
		
			<use xlink:href="#_x31_"  width="10.73" height="9.29" x="-5.37" y="-4.65" transform="matrix(0.8437 0 0 -0.8437 109.9049 90.0824)" style="overflow:visible;"/>
		
			<use xlink:href="#_x31_"  width="10.73" height="9.29" x="-5.37" y="-4.65" transform="matrix(0.7696 0 0 -0.7696 109.9049 80.1647)" style="overflow:visible;"/>
		
			<use xlink:href="#_x31_"  width="10.73" height="9.29" x="-5.37" y="-4.65" transform="matrix(0.6956 0 0 -0.6956 109.9049 70.2471)" style="overflow:visible;"/>
		
			<use xlink:href="#_x31_"  width="10.73" height="9.29" x="-5.37" y="-4.65" transform="matrix(0.6215 0 0 -0.6215 109.9049 60.3294)" style="overflow:visible;"/>
		
			<use xlink:href="#_x31_"  width="10.73" height="9.29" x="-5.37" y="-4.65" transform="matrix(0.5475 0 0 -0.5475 109.9049 50.4118)" style="overflow:visible;"/>
		
			<use xlink:href="#_x31_"  width="10.73" height="9.29" x="-5.37" y="-4.65" transform="matrix(0.4734 0 0 -0.4734 109.9049 40.4941)" style="overflow:visible;"/>
		
			<use xlink:href="#_x31_"  width="10.73" height="9.29" x="-5.37" y="-4.65" transform="matrix(0.3994 0 0 -0.3994 109.9049 30.5765)" style="overflow:visible;"/>
		
			<use xlink:href="#_x31_"  width="10.73" height="9.29" x="-5.37" y="-4.65" transform="matrix(0.3253 0 0 -0.3253 109.9049 20.6588)" style="overflow:visible;"/>
		
			<use xlink:href="#_x31_"  width="10.73" height="9.29" x="-5.37" y="-4.65" transform="matrix(0.2513 0 0 -0.2513 109.9049 10.7412)" style="overflow:visible;"/>
		
			<use xlink:href="#_x31_"  width="10.73" height="9.29" x="-5.37" y="-4.65" transform="matrix(0.1772 0 0 -0.1772 109.9049 0.8236)" style="overflow:visible;"/>
	</g>
	<g>
		
			<use xlink:href="#_x31_"  width="10.73" height="9.29" x="-5.37" y="-4.65" transform="matrix(0.1772 0 0 -0.1772 100 199.1764)" style="overflow:visible;"/>
		
			<use xlink:href="#_x31_"  width="10.73" height="9.29" x="-5.37" y="-4.65" transform="matrix(0.2595 0 0 -0.2595 100 189.2588)" style="overflow:visible;"/>
		
			<use xlink:href="#_x31_"  width="10.73" height="9.29" x="-5.37" y="-4.65" transform="matrix(0.3418 0 0 -0.3418 100 179.3412)" style="overflow:visible;"/>
		
			<use xlink:href="#_x31_"  width="10.73" height="9.29" x="-5.37" y="-4.65" transform="matrix(0.4241 0 0 -0.4241 100 169.4235)" style="overflow:visible;"/>
		
			<use xlink:href="#_x31_"  width="10.73" height="9.29" x="-5.37" y="-4.65" transform="matrix(0.5063 0 0 -0.5063 100 159.5059)" style="overflow:visible;"/>
		
			<use xlink:href="#_x31_"  width="10.73" height="9.29" x="-5.37" y="-4.65" transform="matrix(0.5886 0 0 -0.5886 100 149.5882)" style="overflow:visible;"/>
		
			<use xlink:href="#_x31_"  width="10.73" height="9.29" x="-5.37" y="-4.65" transform="matrix(0.6709 0 0 -0.6709 100 139.6706)" style="overflow:visible;"/>
		
			<use xlink:href="#_x31_"  width="10.73" height="9.29" x="-5.37" y="-4.65" transform="matrix(0.7532 0 0 -0.7532 100 129.7529)" style="overflow:visible;"/>
		
			<use xlink:href="#_x31_"  width="10.73" height="9.29" x="-5.37" y="-4.65" transform="matrix(0.8354 0 0 -0.8354 100 119.8353)" style="overflow:visible;"/>
		
			<use xlink:href="#_x31_"  width="10.73" height="9.29" x="-5.37" y="-4.65" transform="matrix(0.9177 0 0 -0.9177 100 109.9176)" style="overflow:visible;"/>
		
			<use xlink:href="#_x31_"  width="10.73" height="9.29" x="-5.37" y="-4.65" transform="matrix(1 0 0 -1 100 100)" style="overflow:visible;"/>
		
			<use xlink:href="#_x31_"  width="10.73" height="9.29" x="-5.37" y="-4.65" transform="matrix(0.9177 0 0 -0.9177 100 90.0824)" style="overflow:visible;"/>
		
			<use xlink:href="#_x31_"  width="10.73" height="9.29" x="-5.37" y="-4.65" transform="matrix(0.8354 0 0 -0.8354 100 80.1647)" style="overflow:visible;"/>
		
			<use xlink:href="#_x31_"  width="10.73" height="9.29" x="-5.37" y="-4.65" transform="matrix(0.7532 0 0 -0.7532 100 70.2471)" style="overflow:visible;"/>
		
			<use xlink:href="#_x31_"  width="10.73" height="9.29" x="-5.37" y="-4.65" transform="matrix(0.6709 0 0 -0.6709 100 60.3294)" style="overflow:visible;"/>
		
			<use xlink:href="#_x31_"  width="10.73" height="9.29" x="-5.37" y="-4.65" transform="matrix(0.5886 0 0 -0.5886 100 50.4118)" style="overflow:visible;"/>
		
			<use xlink:href="#_x31_"  width="10.73" height="9.29" x="-5.37" y="-4.65" transform="matrix(0.5063 0 0 -0.5063 100 40.4941)" style="overflow:visible;"/>
		
			<use xlink:href="#_x31_"  width="10.73" height="9.29" x="-5.37" y="-4.65" transform="matrix(0.4241 0 0 -0.4241 100 30.5765)" style="overflow:visible;"/>
		
			<use xlink:href="#_x31_"  width="10.73" height="9.29" x="-5.37" y="-4.65" transform="matrix(0.3418 0 0 -0.3418 100 20.6588)" style="overflow:visible;"/>
		
			<use xlink:href="#_x31_"  width="10.73" height="9.29" x="-5.37" y="-4.65" transform="matrix(0.2595 0 0 -0.2595 100 10.7412)" style="overflow:visible;"/>
		
			<use xlink:href="#_x31_"  width="10.73" height="9.29" x="-5.37" y="-4.65" transform="matrix(0.1772 0 0 -0.1772 100 0.8236)" style="overflow:visible;"/>
	</g>
	<g>
		
			<use xlink:href="#_x31_"  width="10.73" height="9.29" x="-5.37" y="-4.65" transform="matrix(0.1772 0 0 -0.1772 90.1902 199.1764)" style="overflow:visible;"/>
		
			<use xlink:href="#_x31_"  width="10.73" height="9.29" x="-5.37" y="-4.65" transform="matrix(0.2513 0 0 -0.2513 90.1807 189.2588)" style="overflow:visible;"/>
		
			<use xlink:href="#_x31_"  width="10.73" height="9.29" x="-5.37" y="-4.65" transform="matrix(0.3253 0 0 -0.3253 90.1712 179.3412)" style="overflow:visible;"/>
		
			<use xlink:href="#_x31_"  width="10.73" height="9.29" x="-5.37" y="-4.65" transform="matrix(0.3994 0 0 -0.3994 90.1617 169.4235)" style="overflow:visible;"/>
		
			<use xlink:href="#_x31_"  width="10.73" height="9.29" x="-5.37" y="-4.65" transform="matrix(0.4734 0 0 -0.4734 90.1522 159.5059)" style="overflow:visible;"/>
		
			<use xlink:href="#_x31_"  width="10.73" height="9.29" x="-5.37" y="-4.65" transform="matrix(0.5475 0 0 -0.5475 90.1426 149.5882)" style="overflow:visible;"/>
		
			<use xlink:href="#_x31_"  width="10.73" height="9.29" x="-5.37" y="-4.65" transform="matrix(0.6215 0 0 -0.6215 90.1331 139.6706)" style="overflow:visible;"/>
		
			<use xlink:href="#_x31_"  width="10.73" height="9.29" x="-5.37" y="-4.65" transform="matrix(0.6956 0 0 -0.6956 90.1236 129.7529)" style="overflow:visible;"/>
		
			<use xlink:href="#_x31_"  width="10.73" height="9.29" x="-5.37" y="-4.65" transform="matrix(0.7696 0 0 -0.7696 90.1141 119.8353)" style="overflow:visible;"/>
		
			<use xlink:href="#_x31_"  width="10.73" height="9.29" x="-5.37" y="-4.65" transform="matrix(0.8437 0 0 -0.8437 90.1046 109.9176)" style="overflow:visible;"/>
		
			<use xlink:href="#_x31_"  width="10.73" height="9.29" x="-5.37" y="-4.65" transform="matrix(0.9177 0 0 -0.9177 90.0951 100)" style="overflow:visible;"/>
		
			<use xlink:href="#_x31_"  width="10.73" height="9.29" x="-5.37" y="-4.65" transform="matrix(0.8437 0 0 -0.8437 90.1046 90.0824)" style="overflow:visible;"/>
		
			<use xlink:href="#_x31_"  width="10.73" height="9.29" x="-5.37" y="-4.65" transform="matrix(0.7696 0 0 -0.7696 90.1141 80.1647)" style="overflow:visible;"/>
		
			<use xlink:href="#_x31_"  width="10.73" height="9.29" x="-5.37" y="-4.65" transform="matrix(0.6956 0 0 -0.6956 90.1236 70.2471)" style="overflow:visible;"/>
		
			<use xlink:href="#_x31_"  width="10.73" height="9.29" x="-5.37" y="-4.65" transform="matrix(0.6215 0 0 -0.6215 90.1331 60.3294)" style="overflow:visible;"/>
		
			<use xlink:href="#_x31_"  width="10.73" height="9.29" x="-5.37" y="-4.65" transform="matrix(0.5475 0 0 -0.5475 90.1426 50.4118)" style="overflow:visible;"/>
		
			<use xlink:href="#_x31_"  width="10.73" height="9.29" x="-5.37" y="-4.65" transform="matrix(0.4734 0 0 -0.4734 90.1522 40.4941)" style="overflow:visible;"/>
		
			<use xlink:href="#_x31_"  width="10.73" height="9.29" x="-5.37" y="-4.65" transform="matrix(0.3994 0 0 -0.3994 90.1617 30.5765)" style="overflow:visible;"/>
		
			<use xlink:href="#_x31_"  width="10.73" height="9.29" x="-5.37" y="-4.65" transform="matrix(0.3253 0 0 -0.3253 90.1712 20.6588)" style="overflow:visible;"/>
		
			<use xlink:href="#_x31_"  width="10.73" height="9.29" x="-5.37" y="-4.65" transform="matrix(0.2513 0 0 -0.2513 90.1807 10.7412)" style="overflow:visible;"/>
		
			<use xlink:href="#_x31_"  width="10.73" height="9.29" x="-5.37" y="-4.65" transform="matrix(0.1772 0 0 -0.1772 90.1902 0.8236)" style="overflow:visible;"/>
	</g>
	<g>
		
			<use xlink:href="#_x31_"  width="10.73" height="9.29" x="-5.37" y="-4.65" transform="matrix(0.1772 0 0 -0.1772 80.4755 199.1764)" style="overflow:visible;"/>
		
			<use xlink:href="#_x31_"  width="10.73" height="9.29" x="-5.37" y="-4.65" transform="matrix(0.243 0 0 -0.243 80.4565 189.2588)" style="overflow:visible;"/>
		
			<use xlink:href="#_x31_"  width="10.73" height="9.29" x="-5.37" y="-4.65" transform="matrix(0.3089 0 0 -0.3089 80.4374 179.3412)" style="overflow:visible;"/>
		
			<use xlink:href="#_x31_"  width="10.73" height="9.29" x="-5.37" y="-4.65" transform="matrix(0.3747 0 0 -0.3747 80.4184 169.4235)" style="overflow:visible;"/>
		
			<use xlink:href="#_x31_"  width="10.73" height="9.29" x="-5.37" y="-4.65" transform="matrix(0.4405 0 0 -0.4405 80.3994 159.5059)" style="overflow:visible;"/>
		
			<use xlink:href="#_x31_"  width="10.73" height="9.29" x="-5.37" y="-4.65" transform="matrix(0.5063 0 0 -0.5063 80.3804 149.5882)" style="overflow:visible;"/>
		
			<use xlink:href="#_x31_"  width="10.73" height="9.29" x="-5.37" y="-4.65" transform="matrix(0.5722 0 0 -0.5722 80.3614 139.6706)" style="overflow:visible;"/>
		
			<use xlink:href="#_x31_"  width="10.73" height="9.29" x="-5.37" y="-4.65" transform="matrix(0.638 0 0 -0.638 80.3423 129.7529)" style="overflow:visible;"/>
		
			<use xlink:href="#_x31_"  width="10.73" height="9.29" x="-5.37" y="-4.65" transform="matrix(0.7038 0 0 -0.7038 80.3233 119.8353)" style="overflow:visible;"/>
		
			<use xlink:href="#_x31_"  width="10.73" height="9.29" x="-5.37" y="-4.65" transform="matrix(0.7696 0 0 -0.7696 80.3043 109.9176)" style="overflow:visible;"/>
		
			<use xlink:href="#_x31_"  width="10.73" height="9.29" x="-5.37" y="-4.65" transform="matrix(0.8354 0 0 -0.8354 80.2853 100)" style="overflow:visible;"/>
		
			<use xlink:href="#_x31_"  width="10.73" height="9.29" x="-5.37" y="-4.65" transform="matrix(0.7696 0 0 -0.7696 80.3043 90.0824)" style="overflow:visible;"/>
		
			<use xlink:href="#_x31_"  width="10.73" height="9.29" x="-5.37" y="-4.65" transform="matrix(0.7038 0 0 -0.7038 80.3233 80.1647)" style="overflow:visible;"/>
		
			<use xlink:href="#_x31_"  width="10.73" height="9.29" x="-5.37" y="-4.65" transform="matrix(0.638 0 0 -0.638 80.3423 70.2471)" style="overflow:visible;"/>
		
			<use xlink:href="#_x31_"  width="10.73" height="9.29" x="-5.37" y="-4.65" transform="matrix(0.5722 0 0 -0.5722 80.3614 60.3294)" style="overflow:visible;"/>
		
			<use xlink:href="#_x31_"  width="10.73" height="9.29" x="-5.37" y="-4.65" transform="matrix(0.5063 0 0 -0.5063 80.3804 50.4118)" style="overflow:visible;"/>
		
			<use xlink:href="#_x31_"  width="10.73" height="9.29" x="-5.37" y="-4.65" transform="matrix(0.4405 0 0 -0.4405 80.3994 40.4941)" style="overflow:visible;"/>
		
			<use xlink:href="#_x31_"  width="10.73" height="9.29" x="-5.37" y="-4.65" transform="matrix(0.3747 0 0 -0.3747 80.4184 30.5765)" style="overflow:visible;"/>
		
			<use xlink:href="#_x31_"  width="10.73" height="9.29" x="-5.37" y="-4.65" transform="matrix(0.3089 0 0 -0.3089 80.4374 20.6588)" style="overflow:visible;"/>
		
			<use xlink:href="#_x31_"  width="10.73" height="9.29" x="-5.37" y="-4.65" transform="matrix(0.243 0 0 -0.243 80.4565 10.7412)" style="overflow:visible;"/>
		
			<use xlink:href="#_x31_"  width="10.73" height="9.29" x="-5.37" y="-4.65" transform="matrix(0.1772 0 0 -0.1772 80.4755 0.8236)" style="overflow:visible;"/>
	</g>
	<g>
		
			<use xlink:href="#_x31_"  width="10.73" height="9.29" x="-5.37" y="-4.65" transform="matrix(0.1772 0 0 -0.1772 70.7132 199.1764)" style="overflow:visible;"/>
		
			<use xlink:href="#_x31_"  width="10.73" height="9.29" x="-5.37" y="-4.65" transform="matrix(0.2348 0 0 -0.2348 70.6847 189.2588)" style="overflow:visible;"/>
		
			<use xlink:href="#_x31_"  width="10.73" height="9.29" x="-5.37" y="-4.65" transform="matrix(0.2924 0 0 -0.2924 70.6562 179.3412)" style="overflow:visible;"/>
		
			<use xlink:href="#_x31_"  width="10.73" height="9.29" x="-5.37" y="-4.65" transform="matrix(0.35 0 0 -0.35 70.6276 169.4235)" style="overflow:visible;"/>
		
			<use xlink:href="#_x31_"  width="10.73" height="9.29" x="-5.37" y="-4.65" transform="matrix(0.4076 0 0 -0.4076 70.5991 159.5059)" style="overflow:visible;"/>
		
			<use xlink:href="#_x31_"  width="10.73" height="9.29" x="-5.37" y="-4.65" transform="matrix(0.4652 0 0 -0.4652 70.5706 149.5882)" style="overflow:visible;"/>
		
			<use xlink:href="#_x31_"  width="10.73" height="9.29" x="-5.37" y="-4.65" transform="matrix(0.5228 0 0 -0.5228 70.542 139.6706)" style="overflow:visible;"/>
		
			<use xlink:href="#_x31_"  width="10.73" height="9.29" x="-5.37" y="-4.65" transform="matrix(0.5804 0 0 -0.5804 70.5135 129.7529)" style="overflow:visible;"/>
		
			<use xlink:href="#_x31_"  width="10.73" height="9.29" x="-5.37" y="-4.65" transform="matrix(0.638 0 0 -0.638 70.485 119.8353)" style="overflow:visible;"/>
		
			<use xlink:href="#_x31_"  width="10.73" height="9.29" x="-5.37" y="-4.65" transform="matrix(0.6956 0 0 -0.6956 70.4565 109.9176)" style="overflow:visible;"/>
		
			<use xlink:href="#_x31_"  width="10.73" height="9.29" x="-5.37" y="-4.65" transform="matrix(0.7532 0 0 -0.7532 70.4279 100)" style="overflow:visible;"/>
		
			<use xlink:href="#_x31_"  width="10.73" height="9.29" x="-5.37" y="-4.65" transform="matrix(0.6956 0 0 -0.6956 70.4565 90.0824)" style="overflow:visible;"/>
		
			<use xlink:href="#_x31_"  width="10.73" height="9.29" x="-5.37" y="-4.65" transform="matrix(0.638 0 0 -0.638 70.485 80.1647)" style="overflow:visible;"/>
		
			<use xlink:href="#_x31_"  width="10.73" height="9.29" x="-5.37" y="-4.65" transform="matrix(0.5804 0 0 -0.5804 70.5135 70.2471)" style="overflow:visible;"/>
		
			<use xlink:href="#_x31_"  width="10.73" height="9.29" x="-5.37" y="-4.65" transform="matrix(0.5228 0 0 -0.5228 70.542 60.3294)" style="overflow:visible;"/>
		
			<use xlink:href="#_x31_"  width="10.73" height="9.29" x="-5.37" y="-4.65" transform="matrix(0.4652 0 0 -0.4652 70.5706 50.4118)" style="overflow:visible;"/>
		
			<use xlink:href="#_x31_"  width="10.73" height="9.29" x="-5.37" y="-4.65" transform="matrix(0.4076 0 0 -0.4076 70.5991 40.4941)" style="overflow:visible;"/>
		
			<use xlink:href="#_x31_"  width="10.73" height="9.29" x="-5.37" y="-4.65" transform="matrix(0.35 0 0 -0.35 70.6276 30.5765)" style="overflow:visible;"/>
		
			<use xlink:href="#_x31_"  width="10.73" height="9.29" x="-5.37" y="-4.65" transform="matrix(0.2924 0 0 -0.2924 70.6562 20.6588)" style="overflow:visible;"/>
		
			<use xlink:href="#_x31_"  width="10.73" height="9.29" x="-5.37" y="-4.65" transform="matrix(0.2348 0 0 -0.2348 70.6847 10.7412)" style="overflow:visible;"/>
		
			<use xlink:href="#_x31_"  width="10.73" height="9.29" x="-5.37" y="-4.65" transform="matrix(0.1772 0 0 -0.1772 70.7132 0.8236)" style="overflow:visible;"/>
	</g>
	<g>
		
			<use xlink:href="#_x31_"  width="10.73" height="9.29" x="-5.37" y="-4.65" transform="matrix(0.1772 0 0 -0.1772 60.951 199.1764)" style="overflow:visible;"/>
		
			<use xlink:href="#_x31_"  width="10.73" height="9.29" x="-5.37" y="-4.65" transform="matrix(0.2266 0 0 -0.2266 60.9129 189.2588)" style="overflow:visible;"/>
		
			<use xlink:href="#_x31_"  width="10.73" height="9.29" x="-5.37" y="-4.65" transform="matrix(0.276 0 0 -0.276 60.8749 179.3412)" style="overflow:visible;"/>
		
			<use xlink:href="#_x31_"  width="10.73" height="9.29" x="-5.37" y="-4.65" transform="matrix(0.3253 0 0 -0.3253 60.8368 169.4235)" style="overflow:visible;"/>
		
			<use xlink:href="#_x31_"  width="10.73" height="9.29" x="-5.37" y="-4.65" transform="matrix(0.3747 0 0 -0.3747 60.7988 159.5059)" style="overflow:visible;"/>
		
			<use xlink:href="#_x31_"  width="10.73" height="9.29" x="-5.37" y="-4.65" transform="matrix(0.4241 0 0 -0.4241 60.7608 149.5882)" style="overflow:visible;"/>
		
			<use xlink:href="#_x31_"  width="10.73" height="9.29" x="-5.37" y="-4.65" transform="matrix(0.4734 0 0 -0.4734 60.7227 139.6706)" style="overflow:visible;"/>
		
			<use xlink:href="#_x31_"  width="10.73" height="9.29" x="-5.37" y="-4.65" transform="matrix(0.5228 0 0 -0.5228 60.6847 129.7529)" style="overflow:visible;"/>
		
			<use xlink:href="#_x31_"  width="10.73" height="9.29" x="-5.37" y="-4.65" transform="matrix(0.5722 0 0 -0.5722 60.6467 119.8353)" style="overflow:visible;"/>
		
			<use xlink:href="#_x31_"  width="10.73" height="9.29" x="-5.37" y="-4.65" transform="matrix(0.6215 0 0 -0.6215 60.6086 109.9176)" style="overflow:visible;"/>
		
			<use xlink:href="#_x31_"  width="10.73" height="9.29" x="-5.37" y="-4.65" transform="matrix(0.6709 0 0 -0.6709 60.5706 100)" style="overflow:visible;"/>
		
			<use xlink:href="#_x31_"  width="10.73" height="9.29" x="-5.37" y="-4.65" transform="matrix(0.6215 0 0 -0.6215 60.6086 90.0824)" style="overflow:visible;"/>
		
			<use xlink:href="#_x31_"  width="10.73" height="9.29" x="-5.37" y="-4.65" transform="matrix(0.5722 0 0 -0.5722 60.6467 80.1647)" style="overflow:visible;"/>
		
			<use xlink:href="#_x31_"  width="10.73" height="9.29" x="-5.37" y="-4.65" transform="matrix(0.5228 0 0 -0.5228 60.6847 70.2471)" style="overflow:visible;"/>
		
			<use xlink:href="#_x31_"  width="10.73" height="9.29" x="-5.37" y="-4.65" transform="matrix(0.4734 0 0 -0.4734 60.7227 60.3294)" style="overflow:visible;"/>
		
			<use xlink:href="#_x31_"  width="10.73" height="9.29" x="-5.37" y="-4.65" transform="matrix(0.4241 0 0 -0.4241 60.7608 50.4118)" style="overflow:visible;"/>
		
			<use xlink:href="#_x31_"  width="10.73" height="9.29" x="-5.37" y="-4.65" transform="matrix(0.3747 0 0 -0.3747 60.7988 40.4941)" style="overflow:visible;"/>
		
			<use xlink:href="#_x31_"  width="10.73" height="9.29" x="-5.37" y="-4.65" transform="matrix(0.3253 0 0 -0.3253 60.8368 30.5765)" style="overflow:visible;"/>
		
			<use xlink:href="#_x31_"  width="10.73" height="9.29" x="-5.37" y="-4.65" transform="matrix(0.276 0 0 -0.276 60.8749 20.6588)" style="overflow:visible;"/>
		
			<use xlink:href="#_x31_"  width="10.73" height="9.29" x="-5.37" y="-4.65" transform="matrix(0.2266 0 0 -0.2266 60.9129 10.7412)" style="overflow:visible;"/>
		
			<use xlink:href="#_x31_"  width="10.73" height="9.29" x="-5.37" y="-4.65" transform="matrix(0.1772 0 0 -0.1772 60.951 0.8236)" style="overflow:visible;"/>
	</g>
	<g>
		
			<use xlink:href="#_x31_"  width="10.73" height="9.29" x="-5.37" y="-4.65" transform="matrix(0.1772 0 0 -0.1772 51.1887 199.1764)" style="overflow:visible;"/>
		
			<use xlink:href="#_x31_"  width="10.73" height="9.29" x="-5.37" y="-4.65" transform="matrix(0.2184 0 0 -0.2184 51.1412 189.2588)" style="overflow:visible;"/>
		
			<use xlink:href="#_x31_"  width="10.73" height="9.29" x="-5.37" y="-4.65" transform="matrix(0.2595 0 0 -0.2595 51.0936 179.3412)" style="overflow:visible;"/>
		
			<use xlink:href="#_x31_"  width="10.73" height="9.29" x="-5.37" y="-4.65" transform="matrix(0.3006 0 0 -0.3006 51.0461 169.4235)" style="overflow:visible;"/>
		
			<use xlink:href="#_x31_"  width="10.73" height="9.29" x="-5.37" y="-4.65" transform="matrix(0.3418 0 0 -0.3418 50.9985 159.5059)" style="overflow:visible;"/>
		
			<use xlink:href="#_x31_"  width="10.73" height="9.29" x="-5.37" y="-4.65" transform="matrix(0.3829 0 0 -0.3829 50.951 149.5882)" style="overflow:visible;"/>
		
			<use xlink:href="#_x31_"  width="10.73" height="9.29" x="-5.37" y="-4.65" transform="matrix(0.4241 0 0 -0.4241 50.9034 139.6706)" style="overflow:visible;"/>
		
			<use xlink:href="#_x31_"  width="10.73" height="9.29" x="-5.37" y="-4.65" transform="matrix(0.4652 0 0 -0.4652 50.8559 129.7529)" style="overflow:visible;"/>
		
			<use xlink:href="#_x31_"  width="10.73" height="9.29" x="-5.37" y="-4.65" transform="matrix(0.5063 0 0 -0.5063 50.8083 119.8353)" style="overflow:visible;"/>
		
			<use xlink:href="#_x31_"  width="10.73" height="9.29" x="-5.37" y="-4.65" transform="matrix(0.5475 0 0 -0.5475 50.7608 109.9176)" style="overflow:visible;"/>
		
			<use xlink:href="#_x31_"  width="10.73" height="9.29" x="-5.37" y="-4.65" transform="matrix(0.5886 0 0 -0.5886 50.7132 100)" style="overflow:visible;"/>
		
			<use xlink:href="#_x31_"  width="10.73" height="9.29" x="-5.37" y="-4.65" transform="matrix(0.5475 0 0 -0.5475 50.7608 90.0824)" style="overflow:visible;"/>
		
			<use xlink:href="#_x31_"  width="10.73" height="9.29" x="-5.37" y="-4.65" transform="matrix(0.5063 0 0 -0.5063 50.8083 80.1647)" style="overflow:visible;"/>
		
			<use xlink:href="#_x31_"  width="10.73" height="9.29" x="-5.37" y="-4.65" transform="matrix(0.4652 0 0 -0.4652 50.8559 70.2471)" style="overflow:visible;"/>
		
			<use xlink:href="#_x31_"  width="10.73" height="9.29" x="-5.37" y="-4.65" transform="matrix(0.4241 0 0 -0.4241 50.9034 60.3294)" style="overflow:visible;"/>
		
			<use xlink:href="#_x31_"  width="10.73" height="9.29" x="-5.37" y="-4.65" transform="matrix(0.3829 0 0 -0.3829 50.951 50.4118)" style="overflow:visible;"/>
		
			<use xlink:href="#_x31_"  width="10.73" height="9.29" x="-5.37" y="-4.65" transform="matrix(0.3418 0 0 -0.3418 50.9985 40.4941)" style="overflow:visible;"/>
		
			<use xlink:href="#_x31_"  width="10.73" height="9.29" x="-5.37" y="-4.65" transform="matrix(0.3006 0 0 -0.3006 51.0461 30.5765)" style="overflow:visible;"/>
		
			<use xlink:href="#_x31_"  width="10.73" height="9.29" x="-5.37" y="-4.65" transform="matrix(0.2595 0 0 -0.2595 51.0936 20.6588)" style="overflow:visible;"/>
		
			<use xlink:href="#_x31_"  width="10.73" height="9.29" x="-5.37" y="-4.65" transform="matrix(0.2184 0 0 -0.2184 51.1411 10.7412)" style="overflow:visible;"/>
		
			<use xlink:href="#_x31_"  width="10.73" height="9.29" x="-5.37" y="-4.65" transform="matrix(0.1772 0 0 -0.1772 51.1887 0.8236)" style="overflow:visible;"/>
	</g>
	<g>
		
			<use xlink:href="#_x31_"  width="10.73" height="9.29" x="-5.37" y="-4.65" transform="matrix(0.1772 0 0 -0.1772 41.4264 199.1764)" style="overflow:visible;"/>
		
			<use xlink:href="#_x31_"  width="10.73" height="9.29" x="-5.37" y="-4.65" transform="matrix(0.2101 0 0 -0.2101 41.3694 189.2588)" style="overflow:visible;"/>
		
			<use xlink:href="#_x31_"  width="10.73" height="9.29" x="-5.37" y="-4.65" transform="matrix(0.243 0 0 -0.243 41.3123 179.3412)" style="overflow:visible;"/>
		
			<use xlink:href="#_x31_"  width="10.73" height="9.29" x="-5.37" y="-4.65" transform="matrix(0.276 0 0 -0.276 41.2553 169.4235)" style="overflow:visible;"/>
		
			<use xlink:href="#_x31_"  width="10.73" height="9.29" x="-5.37" y="-4.65" transform="matrix(0.3089 0 0 -0.3089 41.1982 159.5059)" style="overflow:visible;"/>
		
			<use xlink:href="#_x31_"  width="10.73" height="9.29" x="-5.37" y="-4.65" transform="matrix(0.3418 0 0 -0.3418 41.1412 149.5882)" style="overflow:visible;"/>
		
			<use xlink:href="#_x31_"  width="10.73" height="9.29" x="-5.37" y="-4.65" transform="matrix(0.3747 0 0 -0.3747 41.0841 139.6706)" style="overflow:visible;"/>
		
			<use xlink:href="#_x31_"  width="10.73" height="9.29" x="-5.37" y="-4.65" transform="matrix(0.4076 0 0 -0.4076 41.027 129.7529)" style="overflow:visible;"/>
		
			<use xlink:href="#_x31_"  width="10.73" height="9.29" x="-5.37" y="-4.65" transform="matrix(0.4405 0 0 -0.4405 40.97 119.8353)" style="overflow:visible;"/>
		
			<use xlink:href="#_x31_"  width="10.73" height="9.29" x="-5.37" y="-4.65" transform="matrix(0.4734 0 0 -0.4734 40.9129 109.9176)" style="overflow:visible;"/>
		
			<use xlink:href="#_x31_"  width="10.73" height="9.29" x="-5.37" y="-4.65" transform="matrix(0.5063 0 0 -0.5063 40.8559 100)" style="overflow:visible;"/>
		
			<use xlink:href="#_x31_"  width="10.73" height="9.29" x="-5.37" y="-4.65" transform="matrix(0.4734 0 0 -0.4734 40.9129 90.0824)" style="overflow:visible;"/>
		
			<use xlink:href="#_x31_"  width="10.73" height="9.29" x="-5.37" y="-4.65" transform="matrix(0.4405 0 0 -0.4405 40.97 80.1647)" style="overflow:visible;"/>
		
			<use xlink:href="#_x31_"  width="10.73" height="9.29" x="-5.37" y="-4.65" transform="matrix(0.4076 0 0 -0.4076 41.027 70.2471)" style="overflow:visible;"/>
		
			<use xlink:href="#_x31_"  width="10.73" height="9.29" x="-5.37" y="-4.65" transform="matrix(0.3747 0 0 -0.3747 41.0841 60.3294)" style="overflow:visible;"/>
		
			<use xlink:href="#_x31_"  width="10.73" height="9.29" x="-5.37" y="-4.65" transform="matrix(0.3418 0 0 -0.3418 41.1411 50.4118)" style="overflow:visible;"/>
		
			<use xlink:href="#_x31_"  width="10.73" height="9.29" x="-5.37" y="-4.65" transform="matrix(0.3089 0 0 -0.3089 41.1982 40.4941)" style="overflow:visible;"/>
		
			<use xlink:href="#_x31_"  width="10.73" height="9.29" x="-5.37" y="-4.65" transform="matrix(0.276 0 0 -0.276 41.2553 30.5765)" style="overflow:visible;"/>
		
			<use xlink:href="#_x31_"  width="10.73" height="9.29" x="-5.37" y="-4.65" transform="matrix(0.243 0 0 -0.243 41.3123 20.6588)" style="overflow:visible;"/>
		
			<use xlink:href="#_x31_"  width="10.73" height="9.29" x="-5.37" y="-4.65" transform="matrix(0.2101 0 0 -0.2101 41.3694 10.7412)" style="overflow:visible;"/>
		
			<use xlink:href="#_x31_"  width="10.73" height="9.29" x="-5.37" y="-4.65" transform="matrix(0.1772 0 0 -0.1772 41.4264 0.8236)" style="overflow:visible;"/>
	</g>
	<g>
		
			<use xlink:href="#_x31_"  width="10.73" height="9.29" x="-5.37" y="-4.65" transform="matrix(0.1772 0 0 -0.1772 31.6642 199.1764)" style="overflow:visible;"/>
		
			<use xlink:href="#_x31_"  width="10.73" height="9.29" x="-5.37" y="-4.65" transform="matrix(0.2019 0 0 -0.2019 31.5976 189.2588)" style="overflow:visible;"/>
		
			<use xlink:href="#_x31_"  width="10.73" height="9.29" x="-5.37" y="-4.65" transform="matrix(0.2266 0 0 -0.2266 31.531 179.3412)" style="overflow:visible;"/>
		
			<use xlink:href="#_x31_"  width="10.73" height="9.29" x="-5.37" y="-4.65" transform="matrix(0.2513 0 0 -0.2513 31.4645 169.4235)" style="overflow:visible;"/>
		
			<use xlink:href="#_x31_"  width="10.73" height="9.29" x="-5.37" y="-4.65" transform="matrix(0.276 0 0 -0.276 31.3979 159.5059)" style="overflow:visible;"/>
		
			<use xlink:href="#_x31_"  width="10.73" height="9.29" x="-5.37" y="-4.65" transform="matrix(0.3006 0 0 -0.3006 31.3313 149.5882)" style="overflow:visible;"/>
		
			<use xlink:href="#_x31_"  width="10.73" height="9.29" x="-5.37" y="-4.65" transform="matrix(0.3253 0 0 -0.3253 31.2648 139.6706)" style="overflow:visible;"/>
		
			<use xlink:href="#_x31_"  width="10.73" height="9.29" x="-5.37" y="-4.65" transform="matrix(0.35 0 0 -0.35 31.1982 129.7529)" style="overflow:visible;"/>
		
			<use xlink:href="#_x31_"  width="10.73" height="9.29" x="-5.37" y="-4.65" transform="matrix(0.3747 0 0 -0.3747 31.1316 119.8353)" style="overflow:visible;"/>
		
			<use xlink:href="#_x31_"  width="10.73" height="9.29" x="-5.37" y="-4.65" transform="matrix(0.3994 0 0 -0.3994 31.0651 109.9176)" style="overflow:visible;"/>
		
			<use xlink:href="#_x31_"  width="10.73" height="9.29" x="-5.37" y="-4.65" transform="matrix(0.4241 0 0 -0.4241 30.9985 100)" style="overflow:visible;"/>
		
			<use xlink:href="#_x31_"  width="10.73" height="9.29" x="-5.37" y="-4.65" transform="matrix(0.3994 0 0 -0.3994 31.0651 90.0824)" style="overflow:visible;"/>
		
			<use xlink:href="#_x31_"  width="10.73" height="9.29" x="-5.37" y="-4.65" transform="matrix(0.3747 0 0 -0.3747 31.1316 80.1647)" style="overflow:visible;"/>
		
			<use xlink:href="#_x31_"  width="10.73" height="9.29" x="-5.37" y="-4.65" transform="matrix(0.35 0 0 -0.35 31.1982 70.2471)" style="overflow:visible;"/>
		
			<use xlink:href="#_x31_"  width="10.73" height="9.29" x="-5.37" y="-4.65" transform="matrix(0.3253 0 0 -0.3253 31.2648 60.3294)" style="overflow:visible;"/>
		
			<use xlink:href="#_x31_"  width="10.73" height="9.29" x="-5.37" y="-4.65" transform="matrix(0.3006 0 0 -0.3006 31.3313 50.4118)" style="overflow:visible;"/>
		
			<use xlink:href="#_x31_"  width="10.73" height="9.29" x="-5.37" y="-4.65" transform="matrix(0.276 0 0 -0.276 31.3979 40.4941)" style="overflow:visible;"/>
		
			<use xlink:href="#_x31_"  width="10.73" height="9.29" x="-5.37" y="-4.65" transform="matrix(0.2513 0 0 -0.2513 31.4645 30.5765)" style="overflow:visible;"/>
		
			<use xlink:href="#_x31_"  width="10.73" height="9.29" x="-5.37" y="-4.65" transform="matrix(0.2266 0 0 -0.2266 31.531 20.6588)" style="overflow:visible;"/>
		
			<use xlink:href="#_x31_"  width="10.73" height="9.29" x="-5.37" y="-4.65" transform="matrix(0.2019 0 0 -0.2019 31.5976 10.7412)" style="overflow:visible;"/>
		
			<use xlink:href="#_x31_"  width="10.73" height="9.29" x="-5.37" y="-4.65" transform="matrix(0.1772 0 0 -0.1772 31.6642 0.8236)" style="overflow:visible;"/>
	</g>
	<g>
		
			<use xlink:href="#_x31_"  width="10.73" height="9.29" x="-5.37" y="-4.65" transform="matrix(0.1772 0 0 -0.1772 21.9019 199.1764)" style="overflow:visible;"/>
		
			<use xlink:href="#_x31_"  width="10.73" height="9.29" x="-5.37" y="-4.65" transform="matrix(0.1937 0 0 -0.1937 21.8258 189.2588)" style="overflow:visible;"/>
		
			<use xlink:href="#_x31_"  width="10.73" height="9.29" x="-5.37" y="-4.65" transform="matrix(0.2101 0 0 -0.2101 21.7498 179.3412)" style="overflow:visible;"/>
		
			<use xlink:href="#_x31_"  width="10.73" height="9.29" x="-5.37" y="-4.65" transform="matrix(0.2266 0 0 -0.2266 21.6737 169.4235)" style="overflow:visible;"/>
		
			<use xlink:href="#_x31_"  width="10.73" height="9.29" x="-5.37" y="-4.65" transform="matrix(0.243 0 0 -0.243 21.5976 159.5059)" style="overflow:visible;"/>
		
			<use xlink:href="#_x31_"  width="10.73" height="9.29" x="-5.37" y="-4.65" transform="matrix(0.2595 0 0 -0.2595 21.5215 149.5882)" style="overflow:visible;"/>
		
			<use xlink:href="#_x31_"  width="10.73" height="9.29" x="-5.37" y="-4.65" transform="matrix(0.276 0 0 -0.276 21.4455 139.6706)" style="overflow:visible;"/>
		
			<use xlink:href="#_x31_"  width="10.73" height="9.29" x="-5.37" y="-4.65" transform="matrix(0.2924 0 0 -0.2924 21.3694 129.7529)" style="overflow:visible;"/>
		
			<use xlink:href="#_x31_"  width="10.73" height="9.29" x="-5.37" y="-4.65" transform="matrix(0.3089 0 0 -0.3089 21.2933 119.8353)" style="overflow:visible;"/>
		
			<use xlink:href="#_x31_"  width="10.73" height="9.29" x="-5.37" y="-4.65" transform="matrix(0.3253 0 0 -0.3253 21.2172 109.9176)" style="overflow:visible;"/>
		
			<use xlink:href="#_x31_"  width="10.73" height="9.29" x="-5.37" y="-4.65" transform="matrix(0.3418 0 0 -0.3418 21.1411 100)" style="overflow:visible;"/>
		
			<use xlink:href="#_x31_"  width="10.73" height="9.29" x="-5.37" y="-4.65" transform="matrix(0.3253 0 0 -0.3253 21.2172 90.0824)" style="overflow:visible;"/>
		
			<use xlink:href="#_x31_"  width="10.73" height="9.29" x="-5.37" y="-4.65" transform="matrix(0.3089 0 0 -0.3089 21.2933 80.1647)" style="overflow:visible;"/>
		
			<use xlink:href="#_x31_"  width="10.73" height="9.29" x="-5.37" y="-4.65" transform="matrix(0.2924 0 0 -0.2924 21.3694 70.2471)" style="overflow:visible;"/>
		
			<use xlink:href="#_x31_"  width="10.73" height="9.29" x="-5.37" y="-4.65" transform="matrix(0.276 0 0 -0.276 21.4455 60.3294)" style="overflow:visible;"/>
		
			<use xlink:href="#_x31_"  width="10.73" height="9.29" x="-5.37" y="-4.65" transform="matrix(0.2595 0 0 -0.2595 21.5215 50.4118)" style="overflow:visible;"/>
		
			<use xlink:href="#_x31_"  width="10.73" height="9.29" x="-5.37" y="-4.65" transform="matrix(0.243 0 0 -0.243 21.5976 40.4941)" style="overflow:visible;"/>
		
			<use xlink:href="#_x31_"  width="10.73" height="9.29" x="-5.37" y="-4.65" transform="matrix(0.2266 0 0 -0.2266 21.6737 30.5765)" style="overflow:visible;"/>
		
			<use xlink:href="#_x31_"  width="10.73" height="9.29" x="-5.37" y="-4.65" transform="matrix(0.2101 0 0 -0.2101 21.7498 20.6588)" style="overflow:visible;"/>
		
			<use xlink:href="#_x31_"  width="10.73" height="9.29" x="-5.37" y="-4.65" transform="matrix(0.1937 0 0 -0.1937 21.8258 10.7412)" style="overflow:visible;"/>
		
			<use xlink:href="#_x31_"  width="10.73" height="9.29" x="-5.37" y="-4.65" transform="matrix(0.1772 0 0 -0.1772 21.9019 0.8236)" style="overflow:visible;"/>
	</g>
	<g>
		
			<use xlink:href="#_x31_"  width="10.73" height="9.29" x="-5.37" y="-4.65" transform="matrix(0.1772 0 0 -0.1772 11.9325 199.1764)" style="overflow:visible;"/>
		
			<use xlink:href="#_x31_"  width="10.73" height="9.29" x="-5.37" y="-4.65" transform="matrix(0.1854 0 0 -0.1854 11.8469 189.2588)" style="overflow:visible;"/>
		
			<use xlink:href="#_x31_"  width="10.73" height="9.29" x="-5.37" y="-4.65" transform="matrix(0.1937 0 0 -0.1937 11.7613 179.3412)" style="overflow:visible;"/>
		
			<use xlink:href="#_x31_"  width="10.73" height="9.29" x="-5.37" y="-4.65" transform="matrix(0.2019 0 0 -0.2019 11.6757 169.4235)" style="overflow:visible;"/>
		
			<use xlink:href="#_x31_"  width="10.73" height="9.29" x="-5.37" y="-4.65" transform="matrix(0.2101 0 0 -0.2101 11.5901 159.5059)" style="overflow:visible;"/>
		
			<use xlink:href="#_x31_"  width="10.73" height="9.29" x="-5.37" y="-4.65" transform="matrix(0.2184 0 0 -0.2184 11.5045 149.5882)" style="overflow:visible;"/>
		
			<use xlink:href="#_x31_"  width="10.73" height="9.29" x="-5.37" y="-4.65" transform="matrix(0.2266 0 0 -0.2266 11.419 139.6706)" style="overflow:visible;"/>
		
			<use xlink:href="#_x31_"  width="10.73" height="9.29" x="-5.37" y="-4.65" transform="matrix(0.2348 0 0 -0.2348 11.3334 129.7529)" style="overflow:visible;"/>
		
			<use xlink:href="#_x31_"  width="10.73" height="9.29" x="-5.37" y="-4.65" transform="matrix(0.243 0 0 -0.243 11.2478 119.8353)" style="overflow:visible;"/>
		
			<use xlink:href="#_x31_"  width="10.73" height="9.29" x="-5.37" y="-4.65" transform="matrix(0.2513 0 0 -0.2513 11.1622 109.9176)" style="overflow:visible;"/>
		
			<use xlink:href="#_x31_"  width="10.73" height="9.29" x="-5.37" y="-4.65" transform="matrix(0.2595 0 0 -0.2595 11.0766 100)" style="overflow:visible;"/>
		
			<use xlink:href="#_x31_"  width="10.73" height="9.29" x="-5.37" y="-4.65" transform="matrix(0.2513 0 0 -0.2513 11.1622 90.0824)" style="overflow:visible;"/>
		
			<use xlink:href="#_x31_"  width="10.73" height="9.29" x="-5.37" y="-4.65" transform="matrix(0.243 0 0 -0.243 11.2478 80.1647)" style="overflow:visible;"/>
		
			<use xlink:href="#_x31_"  width="10.73" height="9.29" x="-5.37" y="-4.65" transform="matrix(0.2348 0 0 -0.2348 11.3334 70.2471)" style="overflow:visible;"/>
		
			<use xlink:href="#_x31_"  width="10.73" height="9.29" x="-5.37" y="-4.65" transform="matrix(0.2266 0 0 -0.2266 11.419 60.3294)" style="overflow:visible;"/>
		
			<use xlink:href="#_x31_"  width="10.73" height="9.29" x="-5.37" y="-4.65" transform="matrix(0.2184 0 0 -0.2184 11.5045 50.4118)" style="overflow:visible;"/>
		
			<use xlink:href="#_x31_"  width="10.73" height="9.29" x="-5.37" y="-4.65" transform="matrix(0.2101 0 0 -0.2101 11.5901 40.4941)" style="overflow:visible;"/>
		
			<use xlink:href="#_x31_"  width="10.73" height="9.29" x="-5.37" y="-4.65" transform="matrix(0.2019 0 0 -0.2019 11.6757 30.5765)" style="overflow:visible;"/>
		
			<use xlink:href="#_x31_"  width="10.73" height="9.29" x="-5.37" y="-4.65" transform="matrix(0.1937 0 0 -0.1937 11.7613 20.6588)" style="overflow:visible;"/>
		
			<use xlink:href="#_x31_"  width="10.73" height="9.29" x="-5.37" y="-4.65" transform="matrix(0.1854 0 0 -0.1854 11.8469 10.7412)" style="overflow:visible;"/>
		
			<use xlink:href="#_x31_"  width="10.73" height="9.29" x="-5.37" y="-4.65" transform="matrix(0.1772 0 0 -0.1772 11.9325 0.8236)" style="overflow:visible;"/>
	</g>
	<g>
		
			<use xlink:href="#_x31_"  width="10.73" height="9.29" x="-5.37" y="-4.65" transform="matrix(0.1772 0 0 -0.1772 1.9019 199.1764)" style="overflow:visible;"/>
		
			<use xlink:href="#_x31_"  width="10.73" height="9.29" x="-5.37" y="-4.65" transform="matrix(0.1772 0 0 -0.1772 1.8068 189.2588)" style="overflow:visible;"/>
		
			<use xlink:href="#_x31_"  width="10.73" height="9.29" x="-5.37" y="-4.65" transform="matrix(0.1772 0 0 -0.1772 1.7117 179.3412)" style="overflow:visible;"/>
		
			<use xlink:href="#_x31_"  width="10.73" height="9.29" x="-5.37" y="-4.65" transform="matrix(0.1772 0 0 -0.1772 1.6166 169.4235)" style="overflow:visible;"/>
		
			<use xlink:href="#_x31_"  width="10.73" height="9.29" x="-5.37" y="-4.65" transform="matrix(0.1772 0 0 -0.1772 1.5215 159.5059)" style="overflow:visible;"/>
		
			<use xlink:href="#_x31_"  width="10.73" height="9.29" x="-5.37" y="-4.65" transform="matrix(0.1772 0 0 -0.1772 1.4264 149.5882)" style="overflow:visible;"/>
		
			<use xlink:href="#_x31_"  width="10.73" height="9.29" x="-5.37" y="-4.65" transform="matrix(0.1772 0 0 -0.1772 1.3313 139.6706)" style="overflow:visible;"/>
		
			<use xlink:href="#_x31_"  width="10.73" height="9.29" x="-5.37" y="-4.65" transform="matrix(0.1772 0 0 -0.1772 1.2362 129.7529)" style="overflow:visible;"/>
		
			<use xlink:href="#_x31_"  width="10.73" height="9.29" x="-5.37" y="-4.65" transform="matrix(0.1772 0 0 -0.1772 1.1411 119.8353)" style="overflow:visible;"/>
		
			<use xlink:href="#_x31_"  width="10.73" height="9.29" x="-5.37" y="-4.65" transform="matrix(0.1772 0 0 -0.1772 1.046 109.9176)" style="overflow:visible;"/>
		
			<use xlink:href="#_x31_"  width="10.73" height="9.29" x="-5.37" y="-4.65" transform="matrix(0.1772 0 0 -0.1772 0.951 100)" style="overflow:visible;"/>
		
			<use xlink:href="#_x31_"  width="10.73" height="9.29" x="-5.37" y="-4.65" transform="matrix(0.1772 0 0 -0.1772 1.046 90.0824)" style="overflow:visible;"/>
		
			<use xlink:href="#_x31_"  width="10.73" height="9.29" x="-5.37" y="-4.65" transform="matrix(0.1772 0 0 -0.1772 1.1411 80.1647)" style="overflow:visible;"/>
		
			<use xlink:href="#_x31_"  width="10.73" height="9.29" x="-5.37" y="-4.65" transform="matrix(0.1772 0 0 -0.1772 1.2362 70.2471)" style="overflow:visible;"/>
		
			<use xlink:href="#_x31_"  width="10.73" height="9.29" x="-5.37" y="-4.65" transform="matrix(0.1772 0 0 -0.1772 1.3313 60.3294)" style="overflow:visible;"/>
		
			<use xlink:href="#_x31_"  width="10.73" height="9.29" x="-5.37" y="-4.65" transform="matrix(0.1772 0 0 -0.1772 1.4264 50.4118)" style="overflow:visible;"/>
		
			<use xlink:href="#_x31_"  width="10.73" height="9.29" x="-5.37" y="-4.65" transform="matrix(0.1772 0 0 -0.1772 1.5215 40.4941)" style="overflow:visible;"/>
		
			<use xlink:href="#_x31_"  width="10.73" height="9.29" x="-5.37" y="-4.65" transform="matrix(0.1772 0 0 -0.1772 1.6166 30.5765)" style="overflow:visible;"/>
		
			<use xlink:href="#_x31_"  width="10.73" height="9.29" x="-5.37" y="-4.65" transform="matrix(0.1772 0 0 -0.1772 1.7117 20.6588)" style="overflow:visible;"/>
		
			<use xlink:href="#_x31_"  width="10.73" height="9.29" x="-5.37" y="-4.65" transform="matrix(0.1772 0 0 -0.1772 1.8068 10.7412)" style="overflow:visible;"/>
		
			<use xlink:href="#_x31_"  width="10.73" height="9.29" x="-5.37" y="-4.65" transform="matrix(0.1772 0 0 -0.1772 1.9019 0.8236)" style="overflow:visible;"/>
	</g>
</g>
</svg>
